<svg xmlns="http://www.w3.org/2000/svg" xmlns:xlink="http://www.w3.org/1999/xlink" viewBox="0 0 1000 1000"><defs><style>.cls-1{fill:none;}.cls-2{fill:#c30309;}.cls-3{fill:url(#linear-gradient);}.cls-4{fill:#7a7a7c;}.cls-5{fill:#b2b3b7;}.cls-6{fill:#cfd0d3;}.cls-7{fill:#f2f2f4;}.cls-8{fill:#cecece;}.cls-9{clip-path:url(#clip-path);}.cls-10{fill:#e5e5e5;}</style><linearGradient id="linear-gradient" x1="347" y1="509.5" x2="638" y2="509.5" gradientUnits="userSpaceOnUse"><stop offset="0" stop-color="#7a7a7c"/><stop offset="0.03" stop-color="#8b8b8e"/><stop offset="0.09" stop-color="#b2b3b7"/><stop offset="0.78" stop-color="#b2b3b7"/><stop offset="0.89" stop-color="#b2b3b7"/><stop offset="0.92" stop-color="#9f9fa2"/><stop offset="0.97" stop-color="#848486"/><stop offset="1" stop-color="#7a7a7c"/></linearGradient><clipPath id="clip-path"><rect class="cls-1" x="427" y="485" width="146" height="50"/></clipPath></defs><g id="Layer_3_copy_2" data-name="Layer 3 copy 2"><rect class="cls-2" x="452.5" y="97.14" width="8" height="684.73" transform="translate(-177.16 434.5) rotate(-43.46)"/><rect class="cls-2" x="269.5" y="186.23" width="8" height="582.54" transform="matrix(0.98, -0.18, 0.18, 0.98, -81.59, 57.12)"/><rect class="cls-2" x="504" y="140.38" width="8" height="764.24" transform="translate(-26.97 1017.35) rotate(-88.58)"/><rect class="cls-2" x="219.93" y="532" width="596.15" height="8" transform="translate(-225.65 587.01) rotate(-49.9)"/><path class="cls-3" d="M638,348V703H566.33V549H419.67V703H347V348a346.75,346.75,0,0,1,291,0Z"/><polygon class="cls-4" points="347.5 371.5 347.5 703.5 326.5 703.5 326.5 359.5 347.5 371.5"/><polygon class="cls-5" points="326.5 359.5 326.5 703.5 210.5 703.5 210.5 451.5 326.5 359.5"/><polygon class="cls-4" points="317 444.04 317 703.34 300.6 703.34 300.6 434.66 317 444.04"/><polygon class="cls-6" points="300.6 434.66 300.6 703.34 210 703.34 210 506.52 300.6 434.66"/><path class="cls-4" d="M658.5,359.5v344h-21v-181h.26V371.87l-.26-.18v-.19Z"/><polygon class="cls-5" points="774.5 451.5 774.5 703.5 658.5 703.5 658.5 359.5 774.5 451.5"/><polygon class="cls-7" points="600.5 477 600.5 703.5 566.33 703.5 566.33 549 419.67 549 419.67 703.5 385.5 703.5 385.5 477 600.5 477"/><polygon class="cls-8" points="653.5 526.15 653.5 703.5 600.5 703.5 600.5 512.54 653.5 526.15"/><polygon class="cls-8" points="386 703.5 386 704 333 704 333 526.65 385.5 513.17 385.5 703.5 386 703.5"/><polygon class="cls-4" points="668 444.04 668 703.34 684.4 703.34 684.4 434.66 668 444.04"/><polygon class="cls-6" points="684.4 434.66 684.4 703.34 775 703.34 775 506.52 684.4 434.66"/><g class="cls-9"><image width="528" height="236" transform="translate(430 487) scale(0.33)" xlink:href="Logo_ESPRIT_-_Tunisie.png"/></g><rect class="cls-10" x="419" y="549" width="148" height="155"/><polygon class="cls-2" points="694.48 691.14 689.52 684.86 884.35 531.36 706.88 310.5 713.12 305.5 895.65 532.64 694.48 691.14"/><path class="cls-2" d="M324.4,768.42l-1.53-1.93L121.57,513.86l96.67-327.63L714.15,304.88l-.15,3.31-18.15,383.1Zm-194-256.28L327.6,759.58l360.55-74.87,17.7-373.59L223.76,195.77Z"/><polygon class="cls-2" points="690.82 691.82 113.24 513.24 708.67 304.23 711.33 311.77 138.76 512.76 693.18 684.18 690.82 691.82"/><circle class="cls-2" cx="710" cy="308" r="34"/><circle class="cls-2" cx="890" cy="532" r="34"/><circle class="cls-2" cx="221" cy="191" r="34"/><circle class="cls-2" cx="126" cy="513" r="34"/><circle class="cls-2" cx="692" cy="688" r="34"/><circle class="cls-2" cx="326" cy="764" r="34"/></g></svg>