<svg id="Layer_3_copy" data-name="Layer 3 copy" xmlns="http://www.w3.org/2000/svg" xmlns:xlink="http://www.w3.org/1999/xlink" viewBox="0 0 1000 1000"><defs><style>.cls-1,.cls-2{fill:none;}.cls-2{stroke:#201f20;stroke-miterlimit:10;stroke-width:8px;}.cls-3{fill:url(#linear-gradient);}.cls-4{fill:#7a7a7c;}.cls-5{fill:#b2b3b7;}.cls-6{fill:#cfd0d3;}.cls-7{fill:#f2f2f4;}.cls-8{fill:#cecece;}.cls-9{clip-path:url(#clip-path);}.cls-10{fill:#e5e5e5;}.cls-11{fill:#201f20;}</style><linearGradient id="linear-gradient" x1="347" y1="509.5" x2="638" y2="509.5" gradientUnits="userSpaceOnUse"><stop offset="0" stop-color="#7a7a7c"/><stop offset="0.03" stop-color="#8b8b8e"/><stop offset="0.09" stop-color="#b2b3b7"/><stop offset="0.78" stop-color="#b2b3b7"/><stop offset="0.89" stop-color="#b2b3b7"/><stop offset="0.92" stop-color="#9f9fa2"/><stop offset="0.97" stop-color="#848486"/><stop offset="1" stop-color="#7a7a7c"/></linearGradient><clipPath id="clip-path"><rect class="cls-1" x="427" y="485" width="146" height="50"/></clipPath></defs><line class="cls-2" x1="221" y1="191" x2="692" y2="688"/><line class="cls-2" x1="890" y1="532" x2="126" y2="513"/><line class="cls-2" x1="710" y1="308" x2="326" y2="764"/><path class="cls-3" d="M638,348V703H566.33V549H419.67V703H347V348a346.75,346.75,0,0,1,291,0Z"/><polygon class="cls-4" points="347.5 371.5 347.5 703.5 326.5 703.5 326.5 359.5 347.5 371.5"/><polygon class="cls-5" points="326.5 359.5 326.5 703.5 210.5 703.5 210.5 451.5 326.5 359.5"/><polygon class="cls-4" points="317 444.04 317 703.34 300.6 703.34 300.6 434.66 317 444.04"/><polygon class="cls-6" points="300.6 434.66 300.6 703.34 210 703.34 210 506.52 300.6 434.66"/><path class="cls-4" d="M658.5,359.5v344h-21v-181h.26V371.87l-.26-.18v-.19Z"/><polygon class="cls-5" points="774.5 451.5 774.5 703.5 658.5 703.5 658.5 359.5 774.5 451.5"/><polygon class="cls-7" points="600.5 477 600.5 703.5 566.33 703.5 566.33 549 419.67 549 419.67 703.5 385.5 703.5 385.5 477 600.5 477"/><polygon class="cls-8" points="653.5 526.15 653.5 703.5 600.5 703.5 600.5 512.54 653.5 526.15"/><polygon class="cls-8" points="386 703.5 386 704 333 704 333 526.65 385.5 513.17 385.5 703.5 386 703.5"/><polygon class="cls-4" points="668 444.04 668 703.34 684.4 703.34 684.4 434.66 668 444.04"/><polygon class="cls-6" points="684.4 434.66 684.4 703.34 775 703.34 775 506.52 684.4 434.66"/><g class="cls-9"><image width="528" height="236" transform="translate(430 487) scale(0.33)" xlink:href="Logo_ESPRIT_-_Tunisie.png"/></g><rect class="cls-10" x="419" y="549" width="148" height="155"/><polyline class="cls-2" points="710 308 890 532 692 688"/><circle class="cls-11" cx="710" cy="308" r="34"/><circle class="cls-11" cx="890" cy="532" r="34"/><circle class="cls-11" cx="221" cy="191" r="34"/><circle class="cls-11" cx="126" cy="513" r="34"/><circle class="cls-11" cx="692" cy="688" r="34"/><circle class="cls-11" cx="326" cy="764" r="34"/><polygon class="cls-2" points="326 764 692 688 710 308 221 191 126 513 326 764"/><polyline class="cls-2" points="692 688 126 513 710 308"/></svg>