<svg id="Layer_1" data-name="Layer 1" xmlns="http://www.w3.org/2000/svg" xmlns:xlink="http://www.w3.org/1999/xlink" viewBox="0 0 450 450"><defs><style>.cls-1,.cls-29{fill:none;}.cls-2{clip-path:url(#clip-path);}.cls-3{fill:#f0f0f0;}.cls-4{fill:#f24066;}.cls-5{fill:#e51546;}.cls-6{opacity:0.3;}.cls-11,.cls-17,.cls-30,.cls-49,.cls-6,.cls-66,.cls-9{isolation:isolate;}.cls-7{clip-path:url(#clip-path-3);}.cls-8{fill:#fff;}.cls-9{opacity:0.5;}.cls-10{clip-path:url(#clip-path-4);}.cls-11{opacity:0.2;}.cls-12{clip-path:url(#clip-path-5);}.cls-13{clip-path:url(#clip-path-6);}.cls-14{clip-path:url(#clip-path-7);}.cls-15{clip-path:url(#clip-path-8);}.cls-16{fill:#007cff;}.cls-17{opacity:0.8;}.cls-18{clip-path:url(#clip-path-9);}.cls-19{fill:#f33;}.cls-20{clip-path:url(#clip-path-10);}.cls-21{clip-path:url(#clip-path-11);}.cls-22{clip-path:url(#clip-path-12);}.cls-23{clip-path:url(#clip-path-13);}.cls-24{fill:#aa0e28;}.cls-25{clip-path:url(#clip-path-14);}.cls-26{clip-path:url(#clip-path-15);}.cls-27{clip-path:url(#clip-path-16);}.cls-28{clip-path:url(#clip-path-17);}.cls-29{stroke:#a81329;stroke-miterlimit:10;}.cls-30{opacity:0.7;}.cls-31{clip-path:url(#clip-path-18);}.cls-32{fill:#c66;}.cls-33{fill:#e4897b;}.cls-34{clip-path:url(#clip-path-19);}.cls-35{clip-path:url(#clip-path-20);}.cls-36{fill:#1a2e35;}.cls-37{clip-path:url(#clip-path-21);}.cls-38{clip-path:url(#clip-path-22);}.cls-39{fill:#de5753;}.cls-40{clip-path:url(#clip-path-23);}.cls-41{clip-path:url(#clip-path-24);}.cls-42{clip-path:url(#clip-path-25);}.cls-43{clip-path:url(#clip-path-26);}.cls-44{clip-path:url(#clip-path-27);}.cls-45{clip-path:url(#clip-path-28);}.cls-46{clip-path:url(#clip-path-29);}.cls-47{clip-path:url(#clip-path-30);}.cls-48{fill:#ebb376;}.cls-49{opacity:0.4;}.cls-50{clip-path:url(#clip-path-31);}.cls-51{clip-path:url(#clip-path-32);}.cls-52{clip-path:url(#clip-path-33);}.cls-53{fill:#d58745;}.cls-54{clip-path:url(#clip-path-34);}.cls-55{clip-path:url(#clip-path-35);}.cls-56{fill:#eec1bb;}.cls-57{clip-path:url(#clip-path-36);}.cls-58{fill:#d4827d;}.cls-59{clip-path:url(#clip-path-37);}.cls-60{fill:#9f5b53;}.cls-61{clip-path:url(#clip-path-38);}.cls-62{clip-path:url(#clip-path-39);}.cls-63{clip-path:url(#clip-path-40);}.cls-64{clip-path:url(#clip-path-41);}.cls-65{fill:#892b29;}.cls-66{opacity:0.6;}.cls-67{clip-path:url(#clip-path-42);}</style><clipPath id="clip-path"><rect class="cls-1" width="450" height="450"/></clipPath><clipPath id="clip-path-3"><rect class="cls-1" x="8.5" y="134.1" width="24.4" height="24.4"/></clipPath><clipPath id="clip-path-4"><rect class="cls-1" x="13.48" y="136.53" width="15.32" height="22.77"/></clipPath><clipPath id="clip-path-5"><rect class="cls-1" x="3.3" y="362.6" width="21.7" height="21.8"/></clipPath><clipPath id="clip-path-6"><rect class="cls-1" x="5.98" y="365.38" width="16.72" height="19.02"/></clipPath><clipPath id="clip-path-7"><rect class="cls-1" x="423.3" y="271.6" width="24" height="24"/></clipPath><clipPath id="clip-path-8"><rect class="cls-1" x="428.01" y="274.22" width="17.39" height="21.48"/></clipPath><clipPath id="clip-path-9"><rect class="cls-1" x="283.54" y="157.15" width="97.32" height="43.02"/></clipPath><clipPath id="clip-path-10"><rect class="cls-1" x="295.65" y="262.51" width="62.78" height="99.31"/></clipPath><clipPath id="clip-path-11"><rect class="cls-1" x="149.48" y="101.5" width="42.36" height="67.5"/></clipPath><clipPath id="clip-path-12"><rect class="cls-1" x="55.85" y="279.65" width="107.69" height="23.6"/></clipPath><clipPath id="clip-path-13"><rect class="cls-1" x="55.3" y="81.3" width="325.9" height="320.5"/></clipPath><clipPath id="clip-path-14"><rect class="cls-1" x="187.88" y="164.93" width="4.13" height="3.84"/></clipPath><clipPath id="clip-path-15"><rect class="cls-1" x="280.24" y="195.83" width="4.17" height="3.84"/></clipPath><clipPath id="clip-path-16"><rect class="cls-1" x="159.99" y="275.87" width="4.13" height="3.8"/></clipPath><clipPath id="clip-path-17"><rect class="cls-1" x="292.68" y="258.93" width="4.13" height="3.84"/></clipPath><clipPath id="clip-path-18"><rect class="cls-1" x="345.8" y="124.8" width="70.2" height="70.2"/></clipPath><clipPath id="clip-path-19"><rect class="cls-1" x="350.4" y="166.1" width="10" height="20.6"/></clipPath><clipPath id="clip-path-20"><rect class="cls-1" x="358.3" y="171.6" width="11.3" height="20.2"/></clipPath><clipPath id="clip-path-21"><rect class="cls-1" x="365.2" y="170.88" width="42.1" height="24.02"/></clipPath><clipPath id="clip-path-22"><rect class="cls-1" x="382.9" y="161.2" width="9.3" height="5.6"/></clipPath><clipPath id="clip-path-23"><rect class="cls-1" x="398" y="175.6" width="11.1" height="15"/></clipPath><clipPath id="clip-path-24"><rect class="cls-1" x="273.5" y="65.5" width="37.4" height="37.3"/></clipPath><clipPath id="clip-path-25"><rect class="cls-1" x="277.8" y="67.58" width="28.1" height="35.22"/></clipPath><clipPath id="clip-path-26"><rect class="cls-1" x="142.1" y="380.8" width="37.3" height="37.3"/></clipPath><clipPath id="clip-path-27"><rect class="cls-1" x="150.1" y="384.47" width="23.4" height="33.73"/></clipPath><clipPath id="clip-path-28"><rect class="cls-1" x="52" y="171.9" width="37.4" height="37.3"/></clipPath><clipPath id="clip-path-29"><rect class="cls-1" x="56.63" y="176.29" width="27.97" height="33.01"/></clipPath><clipPath id="clip-path-30"><rect class="cls-1" x="116.4" y="68.1" width="64.2" height="64.2"/></clipPath><clipPath id="clip-path-31"><rect class="cls-1" x="151.3" y="99.2" width="7.6" height="11.5"/></clipPath><clipPath id="clip-path-32"><rect class="cls-1" x="123.3" y="117.6" width="42.9" height="14.6"/></clipPath><clipPath id="clip-path-33"><rect class="cls-1" x="138.1" y="105.5" width="8.3" height="8.5"/></clipPath><clipPath id="clip-path-34"><rect class="cls-1" x="26.7" y="273.9" width="60.5" height="60.6"/></clipPath><clipPath id="clip-path-35"><rect class="cls-1" x="34.6" y="317.1" width="45.6" height="17.5"/></clipPath><clipPath id="clip-path-36"><rect class="cls-1" x="50" y="308" width="8.5" height="7.8"/></clipPath><clipPath id="clip-path-37"><rect class="cls-1" x="321.4" y="320.4" width="75.7" height="75.6"/></clipPath><clipPath id="clip-path-38"><rect class="cls-1" x="324.7" y="373.2" width="20.9" height="19.3"/></clipPath><clipPath id="clip-path-39"><rect class="cls-1" x="341.9" y="370.7" width="51.2" height="25.3"/></clipPath><clipPath id="clip-path-40"><rect class="cls-1" x="341.9" y="374.6" width="40.1" height="21.4"/></clipPath><clipPath id="clip-path-41"><rect class="cls-1" x="362.5" y="354.1" width="9.11" height="13.6"/></clipPath><clipPath id="clip-path-42"><rect class="cls-1" x="230.47" y="157.12" width="14.04" height="12.38"/></clipPath></defs><g class="cls-2"><g class="cls-2"><path class="cls-3" d="M381.2,160.5,262.9,120.6l-.1-.1-62.5-64-50,45.7-.8-.8,50.9-46.5,63.1,64.7,117.2,39.6L428.8,93l.9.7ZM13.6,258.7a5.8,5.8,0,1,1-5.8-5.8,5.74,5.74,0,0,1,5.8,5.8"/><path class="cls-3" d="M206.2,55.7a5.8,5.8,0,1,1-5.8-5.8,5.74,5.74,0,0,1,5.8,5.8M435.1,93.4a5.8,5.8,0,1,1-5.8-5.8,5.74,5.74,0,0,1,5.8,5.8m.5,308.3a5.8,5.8,0,1,1-5.8-5.8,5.8,5.8,0,0,1,5.8,5.8M269.1,120.1a5.8,5.8,0,1,1-5.8-5.8,5.87,5.87,0,0,1,5.8,5.8"/><polygon class="cls-3" points="161.1 401.9 160.7 401.8 14.1 374.1 14.3 373.1 160.4 400.6 262.7 119.9 263.7 120.3 161.1 401.9"/><rect class="cls-3" x="45.22" y="135.11" width="1.1" height="66.8" transform="translate(-110.77 91.13) rotate(-48.5)"/><polygon class="cls-3" points="429.5 402.2 357 357.3 358.6 356.8 434.8 283.6 380.4 160.1 381.4 159.6 436.1 283.8 435.8 284.1 359.5 357.5 430.1 401.3 429.5 402.2"/><polygon class="cls-3" points="14.7 373.9 13.7 373.3 57.5 305.6 7.1 258.8 7.4 258.4 70.7 189.9 71 190.2 359.2 356.9 358.6 357.8 70.9 191.3 8.6 258.7 58.9 305.5 14.7 373.9"/><path class="cls-4" d="M215,326.5a63.26,63.26,0,0,0,8.7.3,88.15,88.15,0,0,0,86.5-81,8.6,8.6,0,0,0,.1-1.6,88.31,88.31,0,0,0-71.9-92.4q-4.35-.75-9-1.2a90.55,90.55,0,0,0-21.5.8,88.4,88.4,0,0,0-73.8,79.9,89.85,89.85,0,0,0,2.7,30.3A88.93,88.93,0,0,0,215,326.5"/><path class="cls-5" d="M156.2,260c-.3,1.7-2.4,2.2-4,2.4l-7.6.9c-1.2-3.2-4.9-3.2-7.5-2a88.3,88.3,0,0,0,78,65,63.26,63.26,0,0,0,8.7.3c.1-.1.1-.2.2-.2,1.3-2.3-.6-4.3-1.6-6.3-.2-.4-2.4-5.9-1.7-5.9a23,23,0,0,1-6.9-.9c-.2-.1-.4-.1-.5-.3-.2-.4.3-.7.7-.8,1-.3,2.1-.3,3.2-.6a3.56,3.56,0,0,0,2.4-1.9c.4-1,.1-2.1.3-3.2a4.13,4.13,0,0,1,2.5-2.8,14.79,14.79,0,0,1,3.6-1c-2.7-1.4-.7-4.5-2.8-6.5-.7-.7-1.7-1.4-1.2-2.3s1.8-.8,2-1.7c.1-.6-.5-1.1-1.1-1.2s-1.3-.1-1.8-.4a1.63,1.63,0,0,1-.5-2.3,6.66,6.66,0,0,1,2-1.2c.7-.4,1.3-1.2.9-1.9-.1-.2-.3-.3-.4-.4-1.1-.7-2.6-.1-3.7.6s-2.2,1.7-3.6,1.7a1.13,1.13,0,0,1,.4-1.5,2.19,2.19,0,0,0,.5-.3c.3-.3.1-.8-.2-1.2a8.07,8.07,0,0,1-.6-6.1c2.7.1,5.4.1,8.1.2.1-.6.2-1,.8-1.1-1.8-2.2-3.8-4.1-5.4-6.5a1.58,1.58,0,0,0-.7-.7c-.3-.1-.7,0-1-.1-1.2-.2-1.3-1.8-1.2-2.9-.2-.4-.7-.2-.9.1s-.3.8-.5,1a1.69,1.69,0,0,1-1.7.2,3.91,3.91,0,0,1-2.1-5,1.33,1.33,0,0,1,.5-.6c.5-.3,1,.1,1.6.2,2.1.4,1.8-1.9,1.2-3-.7-1.4-2.7-2.4-4.1-2.8-1.7-.4-13.1-2.6-11.2-6.3a1.27,1.27,0,0,1,.9-.7,19.72,19.72,0,0,1,3.5-.7c1.1-.3,2.2-1.5,1.8-2.6-.2-.4-.6-.7-.8-1.1-.6-1.1.4-2.6-.1-3.9a7.84,7.84,0,0,0-1-1.5,1.25,1.25,0,0,1,.2-1.7c.6-.4,1.4.2,2-.1s.6-1.3,0-1.8a1.67,1.67,0,0,0-2,.2,1.91,1.91,0,0,1-1,.5c-.7.1-1.1-.6-1.5-1.1-.5-.9-1.1-1.8-1.6-2.7a1.63,1.63,0,0,0-1.3,1.1c-.2.5-.3,1.2-.5,1.8-1.1,2.7-5.3,2.4-4.8,6.1a1.73,1.73,0,0,1,1.8,2.2c-.4,1.3-2.4,2-2.1,3.4.1.5.5.9.6,1.3.2,1.3-1.8,1.8-2.7,2.1-2.9,1-3.1-.9-5.6-1-1.1-.1-2.2.7-3.3.8s-2.1-.3-3.2-.3c-2.9.2-1.4,4.1-1.2,5.8-1.6-1-3.6.2-4.9,1.6-1.9,2.2-1.7,1.8-4.2,1.9a2.06,2.06,0,0,0-1.7,1c-.5,1.1.5,2.2.6,3.4,0,.6-.2,1.1-.2,1.7.2,1.4,1.9,2.1,2.9,3.1A4.15,4.15,0,0,1,171,273a5.5,5.5,0,0,1-2.2-.2c-.4-.8-.9-1.7-1.3-2.5a5.85,5.85,0,0,0-1.5-2,10.47,10.47,0,0,1-1.1-.8c-.6-.8-.1-1.8,0-2.7.3-2.2-.8-6.1-1.3-8.3-.6-2.4-2.2-3.3-2.7-5.5a.67.67,0,0,0-1-.3,1.33,1.33,0,0,0-.6,1,3.61,3.61,0,0,0,.3,2.7c-.5-1.1-3.3,1.8-3.5,2.4-.3.9.3,2.2.3,3.2-.1,2.3-.6,3.7-3.1,1.9-.9-.7-2.1-1.4-3.1-.9a1.6,1.6,0,0,1-.8,1.7,3.38,3.38,0,0,1-2,.2,1.74,1.74,0,0,1-1.2-.6,2.09,2.09,0,0,1-.4-.6c-.6-.5-1.4.4-1.8,1.1m118.9-72.2c.5.8-.1,1.8-.6,2.5a3,3,0,0,0-1,2.4l3.2.3a.76.76,0,0,1,.5.2,1.27,1.27,0,0,1,.1.6c-.1.7-.2,1.3-.3,2-.7.5-1.3-1.1-2.1-.9a1.12,1.12,0,0,0-.7.8c-1.7,2.7-4.7.7-6.3-.7-1.9-1.6-4.5-1.7-7-1.8a3.12,3.12,0,0,0-2.5.7c-.6.6-.6,1.6-.9,2.4-.5,1.4-1.9,2.3-2.6,3.6-2.7,4.6,2.1,8,6.2,6.8,2.1-.6,1.8-1,3.9-.4.9.3,2,.1,2.5,1a1.63,1.63,0,0,1-1.4,2.4,6.92,6.92,0,0,1-3.5-.4c.4,1.4-.1,3.1-.2,4.6a2,2,0,0,0-2.1,2.7c.7,0,1.6.3,1.6.9a.86.86,0,0,1-.3.6c-.5.7-1.1,1.3-1.5,2-.6,1.1-.6,4.5-2.2,4.9-.3.1-.6.1-.9.2a1.35,1.35,0,0,0-.8,1.5,1.75,1.75,0,0,0,1.3,1.2,5.27,5.27,0,0,1,1.2.3c2.1.7.3,2.8.8,3.8a21.31,21.31,0,0,0,4.1,2.8,4.82,4.82,0,0,0-2.3,3.7c-.1,1.7,1.2,2.5,2.8,3.1s3.8.7,5,1.2a2.05,2.05,0,0,0,2,.1c.7-.6.5-1.9,1.3-2.2.3-.1.6-.1.8-.2a3.05,3.05,0,0,0,2.6-3.5,1.86,1.86,0,0,1,1.8-.4c.6,0,1.4-.2,1.5-.8s-.8-1.1-1.5-1.1a5.66,5.66,0,0,0-2.2.2,2.92,2.92,0,0,1-1.6.1,1.76,1.76,0,0,1-.8-.9,4.68,4.68,0,0,1-.9-2.8,2.14,2.14,0,0,1,1.9-2c.3,0,.5.1.8.1.7-.1,1-.9.9-1.6a4.58,4.58,0,0,1-.1-2c.2-.7,1.1-1.1,1.6-.6.4-.9.6-2.2-.2-2.6-.3-.2-.6-.1-.9-.2-1.9-.2-4.5-2.7-2.3-4.2,1.4-.9,3.6,1,4.8-.8.6-.9.2-2.1.8-3,.4-.3.8.3.8.7a4,4,0,0,1-1.3,3.7c1.1.6,2.7-.1,3.5.9s-.4,2.7.6,3.5a1.69,1.69,0,0,0,1,.3c1.7.3,4.9-.1,5,2.4,0,.3-.1.6.1.9.3.9,1.4.9,2.3.8.5-.9-.2-1.9-.5-2.8s-.4-2.3.6-2.5c.7-.2,1.5.4,2.1,0,.3-.2.4-.6.7-.7.7-.4,1.3.7,2.1.9,1,.3,1.8-1,1.8-2.1s-.3-2.3.5-3.2a2.7,2.7,0,0,1,.8-.7,4.27,4.27,0,0,0,1-2.9c.2-1.7,6.9,2.7,7.3,2.8,3.2.5,5.2-2.6,7.4-4.4a17.93,17.93,0,0,1,3.8-2.2,89.27,89.27,0,0,0-63.9-59.8,27,27,0,0,0-4.1-.8c.4,2.1,1.7,5.3.3,7.2-1.8,2.5-5.4.3-6.8,3.2-.1.7,1.2.6,1.8,1.1a3.88,3.88,0,0,1,.6,1.1c.2.4.5.8.9.6.5.7-.3,1.6-.9,2.1a6.27,6.27,0,0,0-1.7,2.3c-.6,1.9.7,3.9,1.6,5.7a26.43,26.43,0,0,1,1.4,4.8c0-.8,1.1-1.1,1.8-.7a8.52,8.52,0,0,1,1.7,1.6c.9.9,2.2.4,3.2,1.1,1.3,1,2.1,2.7,3.7,2.9,1.9.3,3.3-1.7,4.1-3.5,2.1,1.1,3.4,3.8,5.7,4a5.83,5.83,0,0,0,2.6-.6c1.8-.7,3.5-1.3,5.2-2.1a2.87,2.87,0,0,1,2.2-.3c.9.3,1.3,1.2,1.7,2.1s.7,1.8,1.1,2.7a1.72,1.72,0,0,1,.2,1.2,1.76,1.76,0,0,1-.8.9,9.37,9.37,0,0,1-6.7,1.4,32.75,32.75,0,0,0,1.9,9.3c-1.8-.5-3.8.2-5.4-.6m-15.5,62.8a3.31,3.31,0,0,1-2.6,1.3,16.25,16.25,0,0,1-1.9-.4,1.83,1.83,0,0,0-1.7.6c-.5.7,0,1.6.4,2.3s.7,1.2,1.4,1.3c.5.2,1,0,1.4.1a4.23,4.23,0,0,1,2.2,1.8c.6.7,1.7,1.4,2.5.9.6-.3.8-1,1.3-1.3,1.3-.8,2.9,1,4.1.3,1.4-.8.9-3.1.3-4.3a12.6,12.6,0,0,0-2.8-3.3c-2.9-2.8-2.6-1.8-4.6.7m44,36.6c13.9-13.8,22-33.8,23.6-53.1a8.6,8.6,0,0,0,.1-1.6c-2.7-2.7-8-4.5-9.4.5-.6-.1-.7-.4-1.1-.7-.7-.5-1.6.2-2,.9-1.2,2.4-1.4,5.4-4.7,4.8-4-.8-1.3-2.5-2.6-4.7a6,6,0,0,0-.8-.8c-.9-1-.8-2.5-.6-3.8a1.58,1.58,0,0,0,2.1-.9c.1-.3.1-.7.3-.9.5-.5,1.4-.1,1.6.6a14.92,14.92,0,0,1,.2,2.1c.2.7.9,1.3,1.5,1a1.16,1.16,0,0,0,.5-.7,3.72,3.72,0,0,0-.7-3.5,1.5,1.5,0,0,0,1.1-1.5,1.4,1.4,0,0,0-1.2-1.4c-1-.2-2.3.4-2.7-.6a2.06,2.06,0,0,1-.8,2.1c-2.5,1.9-8.3.2-7.8,5.6a23.36,23.36,0,0,1,.4,2.6c0,.9-.5,1.9-1.3,2,1.6,1.2,1,4.1,2.6,5.2a2.12,2.12,0,0,0,2.6-.3c.1-.1.2-.3.4-.3s.6.2.9.3c.5.1,1-.5,1.6-.5.8-.1,1.2.9,1.3,1.7s.4,1.7,1.1,1.9a2.2,2.2,0,0,0,.8.1,1.3,1.3,0,0,1,.8,1.2,3.43,3.43,0,0,1-.4,1.6c-.3.3-.9.1-1.2-.2s-.5-.8-.8-1.1-4.8.2-4.7-.2c-.7,1.6-1,5.1-3.4,4.2-.8-.3-1.7-.9-2.6-.6.4-1.1.8-2.2,1.2-3.4-.4-.3-.9.1-1,.6s-.2,1-.6,1.2a1.49,1.49,0,0,1-.9.2c-1.1,0-2.1-.1-3.2-.1s-2.5.1-3.2.9c-.8,1-.4,2.6.5,3.6.2.3.5.5.4.8s-.3.5-.5.7a4.7,4.7,0,0,0-1.6,4,3.2,3.2,0,0,0,3.1,2.7c.6-.1,1.3-.3,1.7.2.2.3.2.7.5.9s.7-.3,1-.6a1.83,1.83,0,0,1,2.1-.4c.4.2,1.4,3.5,1.1,3.9-.6,1.1-3.7.7-4.9.7a1.46,1.46,0,0,0-1.2.4c-.5.5-.1,1.4.4,1.9s1.2.9,1.4,1.6a1.67,1.67,0,0,1,.1,1.2c-.1.8-.1,1.8-.8,2.3a5.3,5.3,0,0,1-1,.6,2.52,2.52,0,0,0-.5,2.5c.3.9.7,1.7.9,2.5.4,1.9-.7,3.9.1,5.7.4.8,1.5,1.6,2.2.9.6-.5.6-1.8,1.4-1.8s1.7,1.8,2.3,2.2,1.5-.2,2.4.5,1.1,2,1.9,2.6M168.8,181.2c.8-1,1.3-2.1,2.7-2.4,2-.4,2.7.8,1.9,2.7-.1.2-.2.4-.1.5.2.6,1,.3,1.5-.1a4,4,0,0,1,3.8-.2c.3.1.8-5.3.6-6-1-2.2-5.6-1.2-4.7-3.6a45.33,45.33,0,0,1,5.2.3c.1-.8.2-1.7.3-2.5-.1.6,3.2.5,3.5.3,1.4-.7,1-3.3,3.6-2.9,3.2.5,3.4,6.9-.3,5.8a16.39,16.39,0,0,0-1.3,6.2h-2a2.32,2.32,0,0,0-.3,1.6,5.2,5.2,0,0,0,5.5.1c1,.8,2.5.1,3.6-.7,1.5,2.4,5.8,2.1,6.9-.6s-1.7-6-4.5-5.4a7.19,7.19,0,0,0-1.3-3.7,8.33,8.33,0,0,0,8-5.5c.6-1.7.7-3.7,2.1-4.7a13.9,13.9,0,0,1,2.1-1.1c1.4-1,1.9-2.9,2.1-4.6a19.83,19.83,0,0,0,.3-3.5,88.22,88.22,0,0,0-52.3,29.1,2.82,2.82,0,0,0,.2,1.8,4.11,4.11,0,0,0,2.7,1.7c4.2,1.1,6.9.9,9.9-2.4.1,0,.2-.1.3-.2"/><path class="cls-4" d="M7.8,146.3a12.9,12.9,0,0,0,13,12.9,12.9,12.9,0,0,0,13-12.9,12.93,12.93,0,0,0-12.9-12.9A13.1,13.1,0,0,0,7.8,146.3"/><g class="cls-6"><g class="cls-7"><path class="cls-8" d="M20.7,134.1A12.2,12.2,0,1,1,8.5,146.3a12.2,12.2,0,0,1,12.2-12.2"/></g></g><g class="cls-9"><g class="cls-10"><path class="cls-8" d="M13.5,146.1a1.94,1.94,0,0,0,1.5,1.8,2.67,2.67,0,0,0,.1,1.8c.4,1,2.4,1,2.4,1a1.11,1.11,0,0,0,.9.6c.1.1.1.1.1.2s.2.3.3.4c.3,2,.2,4-.8,5.1a21.66,21.66,0,0,0-2.5.4c-.4.1-.8.1-1.2.2a12.85,12.85,0,0,0,6.5,1.7,13.08,13.08,0,0,0,8-2.7H25.3v-.1a2.46,2.46,0,0,1-2.3-1.7,3,3,0,0,1-.2-1.3,4.87,4.87,0,0,0,1.1-.4,4.33,4.33,0,0,0,2.2-2.4c.1-.2.1-.3.2-.5a11.75,11.75,0,0,0,.3-3.8,1.65,1.65,0,0,0,.9-1.2,1.27,1.27,0,0,0-.9-1.6,1.67,1.67,0,0,0,1.3-1.8c0-1.6-1.3-1.6-1.3-1.6s.5-.7-.5-2a1.73,1.73,0,0,0-2.2-.5,2.5,2.5,0,0,0-2.5-1.1,3.23,3.23,0,0,0-2,1.3s0-.9-1.8-.4-1.6,2.6-1.6,2.6a1.3,1.3,0,0,0-1.8.7c-.6,1.3.7,3.6.7,3.6s-1.6.2-1.4,1.7"/></g></g><path class="cls-4" d="M14.2,362.1A11.5,11.5,0,1,1,2.7,373.6a11.5,11.5,0,0,1,11.5-11.5"/><g class="cls-11"><g class="cls-12"><path class="cls-8" d="M25,373.6a10.19,10.19,0,0,1-2.3,6.6,11.05,11.05,0,0,1-8.6,4.2A10.75,10.75,0,0,1,8,382.5a10.92,10.92,0,0,1,6.2-19.9,10.93,10.93,0,0,1,10.8,11"/></g></g><g class="cls-9"><g class="cls-13"><path class="cls-8" d="M22.7,380.2a11.05,11.05,0,0,1-8.6,4.2A10.75,10.75,0,0,1,8,382.5c.4-.8.6-1.3.6-1.3a27.27,27.27,0,0,1,4.1-1,3.09,3.09,0,0,1,1.4-.7A4.19,4.19,0,0,0,14,377a5.73,5.73,0,0,1-1.1-1.1l-.6-.6c-.3-.2-2.6-1.2-2.7-5v-.5c-.7-.1-1.4.2-.9,1.6.9,2.5-.1,3.8-.1,3.8a5.82,5.82,0,0,0-.1-1.7c0,2.6-1.4,2.7-1.4,2.7s.9-.9-.4-3.8-.9-6.8,1.6-7a3.82,3.82,0,0,1,2.8,1.1,4.3,4.3,0,0,1,4.9-.6s2.2-.6,2.9.1c.2.1.1.4-.3.8a2.88,2.88,0,0,1,1.2,1.9,4.24,4.24,0,0,1-.6,3.5c.3,2.8-.2,5-2.4,5.2v.5a3.26,3.26,0,0,0,.2,1.2,9.44,9.44,0,0,1,.9.3c2,0,4.3.2,4.3.2.2.3.4.4.5.6"/></g></g><path class="cls-4" d="M435.4,271a12.7,12.7,0,1,1-12.7,12.7A12.71,12.71,0,0,1,435.4,271"/><g class="cls-6"><g class="cls-14"><path class="cls-8" d="M447.3,283.7a11.67,11.67,0,0,1-2,6.6,11.91,11.91,0,0,1-10,5.3,11.73,11.73,0,0,1-7.3-2.5,12,12,0,1,1,19.3-9.4"/></g></g><g class="cls-9"><g class="cls-15"><path class="cls-8" d="M445.4,290.4a11.91,11.91,0,0,1-10,5.3,11.73,11.73,0,0,1-7.3-2.5,4.44,4.44,0,0,1,.1-2c.2-1.4,1.8-2.6,1.8-3.7s-1.7-2.3-.6-2.9,1.3-2.8.5-4.1a2.77,2.77,0,0,1,.1-3.9,4.77,4.77,0,0,1,3.3-1.8,5.33,5.33,0,0,1,3.5-.5,8,8,0,0,1,3.5,1.2,5,5,0,0,1,1.8,2.3,7.31,7.31,0,0,1,.4,5.2c-.6,1.7,2.1,1.6,2.1,3.2s-1.2,1.7-1,2.7c0,.4.9.8,1.8,1.5"/></g></g><rect class="cls-16" x="279.4" y="178.11" width="105.6" height="1.1" transform="translate(-43.65 146.89) rotate(-23.44)"/><rect class="cls-16" x="170.11" y="95.89" width="1.1" height="78.7" transform="translate(-45.62 110) rotate(-31.74)"/><rect class="cls-16" x="54.8" y="290.9" width="109.8" height="1.1" transform="translate(-57.45 28.7) rotate(-11.84)"/><g class="cls-17"><g class="cls-18"><rect class="cls-19" x="279.4" y="178.11" width="105.6" height="1.1" transform="translate(-43.65 146.89) rotate(-23.44)"/></g></g><rect class="cls-16" x="326.49" y="253.91" width="1.1" height="116.5" transform="translate(-115.8 221.08) rotate(-32.04)"/><g class="cls-17"><g class="cls-20"><rect class="cls-19" x="326.49" y="253.91" width="1.1" height="116.5" transform="translate(-115.8 221.08) rotate(-32.04)"/></g></g><g class="cls-17"><g class="cls-21"><rect class="cls-19" x="170.11" y="95.89" width="1.1" height="78.7" transform="translate(-45.62 110) rotate(-31.74)"/></g></g><g class="cls-17"><g class="cls-22"><rect class="cls-19" x="54.8" y="290.9" width="109.8" height="1.1" transform="translate(-57.45 28.7) rotate(-11.84)"/></g></g><path class="cls-16" d="M160.6,401.8,55.3,302.9,70.2,190.4l.1-.1,79.3-89,.2-.1L293.5,81.3l87.7,76-.1.3L358.4,361.8l-.4.1ZM56.5,302.5l104.4,98.2L357.6,361l22.5-203.2L293.2,82.5l-143,19.8L71.3,190.9Z"/><g class="cls-17"><g class="cls-23"><path class="cls-19" d="M160.6,401.8,55.3,302.9,70.2,190.4l.1-.1,79.3-89,.2-.1L293.5,81.3l87.7,76-.1.3L358.4,361.8l-.4.1ZM56.5,302.5l104.4,98.2L357.6,361l22.5-203.2L293.2,82.5l-143,19.8L71.3,190.9Z"/></g></g><polygon class="cls-24" points="192.9 168.7 191.3 178.2 189.7 168.7 192.9 168.7"/><path class="cls-24" d="M196.1,168.7a4.7,4.7,0,1,1-4.7-4.7,4.69,4.69,0,0,1,4.7,4.7"/><g class="cls-6"><g class="cls-25"><path class="cls-8" d="M191.8,165.4c.5.7.1,1.9-.9,2.7s-2.3.9-2.8.2-.1-1.9.9-2.7,2.2-.9,2.8-.2"/></g></g><polygon class="cls-24" points="285.4 199.6 283.8 209.1 282.2 199.6 285.4 199.6"/><path class="cls-24" d="M283.8,194.9a4.7,4.7,0,1,1-4.7,4.7,4.69,4.69,0,0,1,4.7-4.7"/><g class="cls-6"><g class="cls-26"><path class="cls-8" d="M284.2,196.3c.5.7.1,1.9-.9,2.7s-2.3.9-2.8.2-.1-1.9.9-2.7,2.3-.9,2.8-.2"/></g></g><polygon class="cls-24" points="165.1 279.7 163.4 289.2 161.8 279.7 165.1 279.7"/><path class="cls-24" d="M163.4,275a4.7,4.7,0,1,1-4.7,4.7,4.69,4.69,0,0,1,4.7-4.7"/><g class="cls-6"><g class="cls-27"><path class="cls-8" d="M163.9,276.3c.5.7.1,1.9-.9,2.7s-2.3.9-2.8.2-.1-1.9.9-2.7a2.15,2.15,0,0,1,2.8-.2"/></g></g><polygon class="cls-24" points="297.8 262.8 296.2 272.3 294.6 262.8 297.8 262.8"/><path class="cls-24" d="M300.9,262.8a4.7,4.7,0,1,1-4.7-4.7,4.63,4.63,0,0,1,4.7,4.7"/><g class="cls-6"><g class="cls-28"><path class="cls-8" d="M296.6,259.4c.5.7.1,1.9-.9,2.7s-2.3.9-2.8.2-.1-1.9.9-2.7,2.3-.9,2.8-.2"/></g></g><path class="cls-5" d="M417.1,159.9a36.24,36.24,0,0,1-7.2,21.7,33.69,33.69,0,0,1-5.5,5.8,27.69,27.69,0,0,1-6,4.1,36.7,36.7,0,0,1-17.5,4.5,34.63,34.63,0,0,1-15-3.3l-1.2-.6a30.19,30.19,0,0,1-7.1-4.7,34.37,34.37,0,0,1-8.1-9.7,35.35,35.35,0,0,1-4.8-18,36.2,36.2,0,1,1,72.4.2"/><path class="cls-29" d="M417.1,159.9a36.24,36.24,0,0,1-7.2,21.7,33.69,33.69,0,0,1-5.5,5.8,27.69,27.69,0,0,1-6,4.1,36.7,36.7,0,0,1-17.5,4.5,34.63,34.63,0,0,1-15-3.3l-1.2-.6a30.19,30.19,0,0,1-7.1-4.7,34.37,34.37,0,0,1-8.1-9.7,35.35,35.35,0,0,1-4.8-18,36.2,36.2,0,1,1,72.4.2Z"/><g class="cls-30"><g class="cls-31"><path class="cls-32" d="M380.9,124.8a35.1,35.1,0,1,1-35.1,35.1,35.09,35.09,0,0,1,35.1-35.1"/></g></g><path class="cls-33" d="M357.6,176.3l3.4-14.1s2.2-1.7,2.3-2.9-1.3-8.6-2.3-9.1-6.5,1.5-6.7,3.1,1.9,7.8,2.3,8.3L351,178Z"/><path class="cls-16" d="M360.3,168.2l-2,18.5a34.11,34.11,0,0,1-7.9-9.4c1.2-4.5,2.5-8.4,3.1-10.2.2-.6.3-1,.3-1l1.2.2,4.8.6.6.1Z"/><path class="cls-16" d="M369.6,180.1l-3.2,11.7-1.2-.6a28.65,28.65,0,0,1-6.9-4.6c.3-.6,6.7-15.2,9.1-15Z"/><g class="cls-6"><g class="cls-34"><path d="M360.3,168.2l-2,18.5a34.11,34.11,0,0,1-7.9-9.4c1.2-4.5,2.5-8.4,3.1-10.2.2-.6.3-1,.3-1l1.2.2,4.8.6.6.1Z"/></g></g><g class="cls-6"><g class="cls-35"><path d="M369.6,180.1l-3.2,11.7-1.2-.6a28.65,28.65,0,0,1-6.9-4.6c.3-.6,6.7-15.2,9.1-15Z"/></g></g><polygon class="cls-16" points="361.8 165.8 360.7 168.2 353 167 353.2 165.5 361.8 165.8"/><path class="cls-36" d="M402.3,147.7c-.9,3.5,4,12.9,2,30.2s-21,16.2-29.5,10.5-7-37.1-4.1-43.2,31.6,2.5,31.6,2.5"/><path class="cls-16" d="M407.3,175.7a8.8,8.8,0,0,0-.5,1.5,12.13,12.13,0,0,0-.5,1.4c-.3.9-.6,1.9-.9,2.8-.6,1.8-1.1,3.5-1.7,5.1a28.54,28.54,0,0,1-5.8,4,34.68,34.68,0,0,1-17,4.4,33.47,33.47,0,0,1-14.5-3.2l-1.2-.6v-2c0-1,.1-1.9.1-2.8a9.7,9.7,0,0,0,.1-1.7c0-.3.1-.5.1-.8.1-1,.1-1.9.2-2.6,0-.3.1-.5.1-.8.1-.8.1-1.4.2-2.1.4-4,.9-5.6,1.3-6.3.1-.2.2-.2.2-.3l.2-.2a7.9,7.9,0,0,1,1.4-.1,113.16,113.16,0,0,1,11.6-.5h.3c.6,0,1.2.1,1.8.1,2.3.1,4.6.3,6.8.6a21.66,21.66,0,0,1,2.5.4,25.12,25.12,0,0,0,2.7.4.6.6,0,0,0,.4.1,88.45,88.45,0,0,1,9.9,2.3,7.68,7.68,0,0,0,2.2.9"/><g class="cls-6"><g class="cls-37"><path d="M407.3,175.7a8.8,8.8,0,0,0-.5,1.5,12.13,12.13,0,0,0-.5,1.4c-.3.9-.6,1.9-.9,2.8-.6,1.8-1.1,3.5-1.7,5.1a28.54,28.54,0,0,1-5.8,4,34.68,34.68,0,0,1-17,4.4,33.47,33.47,0,0,1-14.5-3.2l-1.2-.6a3.08,3.08,0,0,1,.1-1v-1c0-1,.1-1.9.1-2.8a9.7,9.7,0,0,0,.1-1.7c0-.3.1-.5.1-.8.1-1,.1-1.9.2-2.6,0-.3.1-.5.1-.8.1-.8.1-1.4.2-2.1.4-4,.9-5.6,1.3-6.3.1-.2.2-.2.2-.3l.2-.2a7.9,7.9,0,0,1,1.4-.1,113.16,113.16,0,0,1,11.6-.5h.3c.6,0,1.2.1,1.8.1,2.3.1,4.6.3,6.8.6a21.66,21.66,0,0,1,2.5.4,25.12,25.12,0,0,0,2.7.4.6.6,0,0,0,.4.1,88.45,88.45,0,0,1,9.9,2.3c.3.4,1.3.6,2.1.9"/></g></g><path class="cls-8" d="M387,170.2c7.8.6,8.7,2.9,7.9,4.2s-11.3,11.5-14.5,18.4c0,0-11.4-24,6.6-22.6"/><path class="cls-33" d="M383,178c7.7-1,10-4.2,10-4.2-4.9-4.6-.8-12.6-.8-12.6l-9.3,1.7a20.54,20.54,0,0,1,.4,3.9c.1,5.6-2.5,5.6-2.5,5.6-1.6,3.1,2.2,5.6,2.2,5.6"/><g class="cls-11"><g class="cls-38"><path d="M382.9,162.9a20.54,20.54,0,0,1,.4,3.9c6.3,0,8.9-5.6,8.9-5.6Z"/></g></g><path class="cls-33" d="M388,137c-8-.5-10.9,3.7-11.9,12-1.3,10.3.6,17.8,10.8,16.1,13.8-2.2,14.4-27.3,1.1-28.1"/><path class="cls-39" d="M381.3,148.8a17.31,17.31,0,0,1-2.5,3.2,2.21,2.21,0,0,0,2.1,1Z"/><path class="cls-36" d="M386.3,148.5c-.1.7.3,1.2.7,1.2s.8-.5.9-1.1-.3-1.2-.7-1.2-.9.4-.9,1.1"/><path class="cls-36" d="M387.4,147.4l-1.4-.7s.6,1.3,1.4.7m-9.3.3c-.1.7.3,1.2.7,1.2s.8-.5.9-1.1-.3-1.2-.7-1.2-.9.4-.9,1.1"/><path class="cls-36" d="M379.2,146.6l-1.4-.7s.6,1.3,1.4.7m10.9-1.9c-.1,0-.2-.1-.3-.2a3.71,3.71,0,0,0-3.1-1.2.4.4,0,0,1,0-.8,4.27,4.27,0,0,1,3.7,1.6c.1.2.1.4-.1.5,0,.1-.1.1-.2.1m-12.5-1.6c-.1,0-.3-.1-.3-.2s-.1-.4.2-.5a4.15,4.15,0,0,1,3.6-.5.38.38,0,1,1-.3.7,3.44,3.44,0,0,0-2.9.5Zm4.3,13.2a23.79,23.79,0,0,1,.8,2.8h.5c2.3-.1,3.4-.9,3.9-1.8a2.54,2.54,0,0,0,.3-1.4,2.77,2.77,0,0,0-.1-.8,11.24,11.24,0,0,1-4.6,1.2Z"/><path class="cls-8" d="M382.7,156.3l.3.8c2.2-.1,3.8-.5,4.4-1.2a2.77,2.77,0,0,0-.1-.8,12.1,12.1,0,0,1-4.6,1.2"/><path class="cls-39" d="M383.2,159.1c2.3-.1,3.4-.9,3.9-1.8a12.21,12.21,0,0,0-2.6.6,3.07,3.07,0,0,0-1.3,1.2"/><path class="cls-36" d="M396.1,151.1s-3.4-6.8-2.5-11.9c0,0-15.6-7.4-17.2,8.7,0,0-.8-14.4,13-14s12.7,20.6,5.2,26.3c-.1,0,3.5-4.8,1.5-9.1"/><path class="cls-33" d="M394.7,152.7a3.52,3.52,0,0,1,4-3c2.5.4,3.4,5.6-2.9,6.5-1,.1-1.4-.8-1.1-3.5"/><path class="cls-36" d="M391.3,138.4a30.23,30.23,0,0,0,4.7,18.9c4.5,6.8-.7,12.8-.7,12.8s8-5.1,8.3-12.8c0,0,6.6-18.4-7.1-23.4,0,0-.1-4.1-9-3.4S371.3,139,370,148.8s3.7,20.8,3.7,20.8-5.4-34.7,17.6-31.2"/><path class="cls-36" d="M391.9,138.6a23.82,23.82,0,0,0-.7,7.1,44.79,44.79,0,0,0,1.1,7.2,26.82,26.82,0,0,0,2.7,6.8,19.27,19.27,0,0,0,4.6,5.7,19.84,19.84,0,0,1-4.8-5.6,24.06,24.06,0,0,1-2.9-6.8,36.21,36.21,0,0,1-1.4-7.3,21.14,21.14,0,0,1,.5-7.5Z"/><path class="cls-16" d="M409.1,180.9a41.13,41.13,0,0,1-5.3,5.7,28.54,28.54,0,0,1-5.8,4c.1-.5.3-.9.4-1.4a34.49,34.49,0,0,1,5.8-9.9,45.28,45.28,0,0,1,3.2-3.6l.1-.1c.7.8,1.2,2.7,1.6,5.3"/><g class="cls-6"><g class="cls-40"><path d="M409.1,180.9a41.13,41.13,0,0,1-5.3,5.7,28.54,28.54,0,0,1-5.8,4c.1-.5.3-.9.4-1.4a34.49,34.49,0,0,1,5.8-9.9,45.28,45.28,0,0,1,3.2-3.6l.1-.1c.7.8,1.2,2.7,1.6,5.3"/></g></g><path class="cls-4" d="M292.2,64.3a19.8,19.8,0,1,1-19.8,19.8,19.79,19.79,0,0,1,19.8-19.8"/><g class="cls-6"><g class="cls-41"><path class="cls-8" d="M310.9,84.1A18.68,18.68,0,0,1,277.8,96a18.26,18.26,0,0,1-4.3-11.9,18.7,18.7,0,0,1,37.4,0"/></g></g><g class="cls-9"><g class="cls-42"><path class="cls-8" d="M305.9,96.8a18.64,18.64,0,0,1-28.1-.8.37.37,0,0,1,.3-.1c.3-.3.5-.7.9-.9v-.2l.3-.1a3.94,3.94,0,0,1,2-.5,1.27,1.27,0,0,1,.6.1l1.1-.2v.3c1.4.1,3.7.3,6.3.4a3.16,3.16,0,0,0,1.1-1.7,5,5,0,0,0,.2-2.1,7.71,7.71,0,0,1-2.6-.7,6.56,6.56,0,0,1-3.2-3.7,1.85,1.85,0,0,1-.2-.7,16.41,16.41,0,0,1-.1-7h-.2a.22.22,0,0,1-.2-.2v-.1c0-.1.2-.2.3-.2h.1a13.33,13.33,0,0,1,.3-4.2,4.78,4.78,0,0,1-.1-4.2c.7-1,.2-.5,2-.6s.7-1.8,1.9-1.8.9.7,2.3,1.2.9-1.1,2.5-1.2,1.9,1.1,3,1.4a5.38,5.38,0,0,0,2.2,0c.8,0,.9,2.5,1.3,2.9s1-.2,1.7,1a1.42,1.42,0,0,1,.2.6c0,1.7-2.1,4.8-2.1,4.8a22.31,22.31,0,0,1-.4,2.3,2.26,2.26,0,0,1,.4,2.5,4.14,4.14,0,0,1-1.8,1.9,13,13,0,0,1-1.2,2.1c-.5,2.8-.8,6.2.2,8.3a66.24,66.24,0,0,1,9,1.4"/></g></g><path class="cls-4" d="M160.8,379.7A19.8,19.8,0,1,1,141,399.5a19.79,19.79,0,0,1,19.8-19.8"/><g class="cls-11"><g class="cls-43"><path class="cls-8" d="M179.4,399.5a18.65,18.65,0,1,1-18.7-18.7,18.74,18.74,0,0,1,18.7,18.7"/></g></g><g class="cls-9"><g class="cls-44"><path class="cls-8" d="M173.5,413.1a18.64,18.64,0,0,1-23.4,1.8c1.3-.2,2.8-.4,4.2-.5,1.1-2.4.8-6.3.3-9.6a13,13,0,0,1-1.3-2.4,5.56,5.56,0,0,1-2.1-2.2,2.37,2.37,0,0,1,.4-2.8,20,20,0,0,1-.6-4.5l-.1.1s-1.5-5.8,4.1-7.9,11.3,1.7,11.3,1.7,1.2-2.3,2.6-1.7c1.2.5.6,2.1.4,2.6a2.47,2.47,0,0,1,1.3-1.1c1-.5,2.4.8-.7,3.9a4.44,4.44,0,0,1-1.1.8,14.49,14.49,0,0,1,.1,4.2,18.33,18.33,0,0,1-.1,8.1c-.1.3-.2.5-.3.8a7.7,7.7,0,0,1-3.7,4.2,6.41,6.41,0,0,1-3,.8,5.24,5.24,0,0,0,.3,2.5,5,5,0,0,0,1.3,1.9c2.9-.2,5.5-.4,7.2-.5a.58.58,0,0,0-.1-.4l1.3.3a3.44,3.44,0,0,1,1.7-.1"/></g></g><path class="cls-4" d="M70.8,170.8A19.8,19.8,0,1,1,51,190.6a19.79,19.79,0,0,1,19.8-19.8"/><g class="cls-11"><g class="cls-45"><path class="cls-8" d="M89.4,190.6A18.27,18.27,0,0,1,84.6,203a18.66,18.66,0,0,1-13.9,6.2,18.35,18.35,0,0,1-11-3.6,18.62,18.62,0,0,1,10.9-33.7A18.82,18.82,0,0,1,89.4,190.6Z"/></g></g><g class="cls-9"><g class="cls-46"><path class="cls-8" d="M84.6,203.1a18.66,18.66,0,0,1-13.9,6.2,18.35,18.35,0,0,1-11-3.6l7.4-2.3a1.76,1.76,0,0,1,.4.5c.3-.1.6-.1.9-.2l1.8-.3a4.76,4.76,0,0,0,.7-2.3,6.73,6.73,0,0,1-1,.1c.2-.7-.9-2.3-.9-2.3l-.4,2a3.77,3.77,0,0,1-1.2-.4c-.5-.3-1.1-2.5-1.1-2.5s-1.3,2.1-1.6,2.6-1,0-1,0a7.65,7.65,0,0,1,.1-3.8,1.32,1.32,0,0,0-1.3-1.9A6.51,6.51,0,0,1,62,197a6.42,6.42,0,0,0-.5,2.7c0,.8.1,1.3-.5,1.3s-.6-.5-.6-1.3-.8-1.7-.3-2.3.1-2.5.1-2.5c-.3,1.3-1.8,1.2-2,2.2s.7,2.2.3,2.7-1.2,0-1.2,0,.6-1,.2-1.6-1.1-.9-.8-2.1.9-1.2.7-2.5-.8-1.2,0-1.8a6.57,6.57,0,0,0,1.9-3.9c0-1.1-.4-3.4,1.3-4.2s2.2-1.4,1.9-3.7,1.3-2,3.5-1.6c0,0,1-1.7,2-1.3s1.8.1,2-.4,2.9-.5,3.4,0a2.93,2.93,0,0,0,2.8.5c.9-.4,3.3,1.1,3.2,2.1s-.1,1.6,1.2,2.1,1.5.9,2.1,3.1-.4,3.1.7,4,1,4.3,1,5.3a14.28,14.28,0,0,1,0,2.2l-.3.1c-.3.1-.6-1.1-.5-2.1s-1.9-2.1-2.1-2.2a6.94,6.94,0,0,1,.6,1.4,10.91,10.91,0,0,1,.3,3.3c-.1,1,1.2,1.7,1.2,1.7l-1.3.7s-1-2.3-.7-3.4a2.29,2.29,0,0,0-.7-2.2v2.2s-.4.8-.9,1.9.4,1.3.6,1.9-1.2.6-1.2.6l-.3-1.3-.5,1.3a6.66,6.66,0,0,1-2.7.8,6.37,6.37,0,0,0,.5,2.1c.5,0,.9-.1,1.3-.1a21.75,21.75,0,0,1,2.6.1c1.8.1,3.3.2,4.3.3"/></g></g><path class="cls-5" d="M148.5,67a33.2,33.2,0,1,1-33.2,33.2A33.19,33.19,0,0,1,148.5,67"/><circle class="cls-29" cx="148.5" cy="100.2" r="33.2" transform="translate(38.02 241.22) rotate(-85.93)"/><g class="cls-30"><g class="cls-47"><path class="cls-32" d="M180.6,100.2a32.24,32.24,0,0,1-6.7,19.6,24.65,24.65,0,0,1-3.8,4.1,32.17,32.17,0,0,1-4.1,3.2c-.1.1-.1.1-.2.1a30.65,30.65,0,0,1-3.6,2,31.31,31.31,0,0,1-13.7,3.1,32.1,32.1,0,1,1,32.1-32.1"/></g></g><path class="cls-48" d="M156,100.2c.7-1.6,1.2-.9,3.3.7a5.36,5.36,0,0,1,2.4,4.7c0,1.7-.3,5-.3,5l5.3,6-2.4,3.6-6.2-7s-3.1-2.3-3.6-4.9,1.5-8.1,1.5-8.1"/><path class="cls-36" d="M155.3,98.4l4.3,7.8a.9.9,0,0,1-.1,1.1l-3.4,3.9a1,1,0,0,1-1.6-.2l-3.9-6.4Z"/><g class="cls-49"><g class="cls-50"><polygon class="cls-16" points="155.1 99.2 158.9 106.5 155.3 110.7 151.3 104.4 155.1 99.2"/></g></g><path class="cls-16" d="M166,127a.9.9,0,0,1,.1.5,1.38,1.38,0,0,1-.3-.4,30.65,30.65,0,0,1-3.6,2c.3-2.2.6-4.2.9-5.8s.5-2.8.7-3.7.3-1.4.3-1.5a3.58,3.58,0,0,1,1.1.4c1.7.8,3.3,2.7,4.9,5.3A25.14,25.14,0,0,1,166,127"/><path class="cls-16" d="M166.1,127.5a1.38,1.38,0,0,1-.3-.4,30.65,30.65,0,0,1-3.6,2,31.31,31.31,0,0,1-13.7,3.1,32,32,0,0,1-24.4-11.3,10.46,10.46,0,0,1,1.7-.4c.1,0,.1,0,.2-.1s.2-.1.4-.1c1.4-.3,2.9-.5,4.5-.7h.1l2-.3,2.6-.3h.2l5.9-.6a12.1,12.1,0,0,1,1.9-.1c.8-.1,1.6-.1,2.4-.2a18.48,18.48,0,0,1,2.3-.1,2.77,2.77,0,0,0,.9-.1,25.28,25.28,0,0,1,2.7-.1c2.8-.1,5.4-.1,7.3-.1h1.3c.7,0,1.4.1,1.9.1a11.48,11.48,0,0,1,1.7.1,8.33,8.33,0,0,1,.4,1.5c.6,2.2,1.1,4.7,1.6,7.3a1.86,1.86,0,0,0,0,.8"/><g class="cls-11"><g class="cls-51"><path d="M166.1,127.5a1.38,1.38,0,0,1-.3-.4,30.65,30.65,0,0,1-3.6,2,31.31,31.31,0,0,1-13.7,3.1,32,32,0,0,1-24.4-11.3c-.3.1-.5.1-.8.2.3-.1.5-.1.8-.2.6-.1,1.1-.3,1.7-.4.1,0,.1,0,.2-.1s.2-.1.4-.1c1.4-.3,2.9-.5,4.5-.7h.1l2-.3,2.6-.3h.2l5.9-.6c.6-.1,1.2-.1,1.9-.2s1.6-.1,2.4-.2a18.48,18.48,0,0,1,2.3-.1,2.77,2.77,0,0,0,.9-.1,25.28,25.28,0,0,1,2.7-.1c2.8-.1,5.4-.1,7.4-.1h1.3c.7,0,1.3.1,1.9.1,1.1.1,1.7.1,1.7.1a8.33,8.33,0,0,1,.4,1.5c.6,2.2,1.1,4.7,1.6,7.3a1.59,1.59,0,0,0-.1.9"/></g></g><path class="cls-48" d="M135.4,119.1c3.5,3.2,12.2,2,12.2,2s5.4-1.5,4.2-3.2c-3.2-.5-4.7-2-5.3-3.9a8.54,8.54,0,0,1-.3-3.6c.1-.7.2-1.3.3-2l-10.7-7.9c1.3,5.2,3,14.8-.4,18.6"/><g class="cls-11"><g class="cls-52"><path d="M138.1,105.5c.4,6.4,5.7,8.2,8.3,8.5a8.54,8.54,0,0,1-.3-3.6Z"/></g></g><path class="cls-36" d="M156.6,85.3s1.5,10-3.8,13.8-5.3-14.7-5.3-14.7Z"/><path class="cls-48" d="M137.4,107a9,9,0,0,0,10.4,3.5,9.77,9.77,0,0,0,5.7-4.7,9.29,9.29,0,0,0,.5-1c2.6-6.1,3.4-16.8-3-20.8a9.74,9.74,0,0,0-13.5,3.1,9.51,9.51,0,0,0-1.4,4.3c-.8,7.2-1.6,11.4,1.3,15.6"/><path class="cls-36" d="M146.5,95.3c-.2.6.1,1.1.5,1.1s.8-.4.9-.9-.2-1.1-.5-1.1c-.5-.1-.8.4-.9.9m6.4,1.1c-.2.6.2,1.1.5,1.1s.8-.4.9-.9-.2-1.1-.5-1.1-.8.4-.9.9"/><path class="cls-53" d="M150.8,96.4a20.4,20.4,0,0,0,1.9,5.4,3.43,3.43,0,0,1-2.8.1Z"/><path class="cls-36" d="M144.8,92.8c.1.1.3,0,.4-.1a3,3,0,0,1,2.4-.8c.2.1.4-.1.4-.3s-.1-.4-.3-.4a3.63,3.63,0,0,0-3,.9.35.35,0,0,0-.1.5c.1.2.2.2.2.2m11.4,1.9c.1.1.1.1.2.1a.54.54,0,0,0,.3-.4,3.45,3.45,0,0,0-2.1-2.3.32.32,0,0,0-.2.6,3,3,0,0,1,1.7,1.9c-.2,0-.1.1.1.1M142.8,83.6v3.2a2.4,2.4,0,0,0-1.6,2.8c.7,2.7-1.3,6.7-3.5,8.1,0,0,.1-1.1-.9-1s-1.4,6.2.1,9.2c0,0-2.5-2.9-3.4-9.4-.8-6-.4-10.8,1.1-12.9Z"/><path class="cls-48" d="M132,96.8a6.57,6.57,0,0,0,3.3,4c2.1,1.1,3.7-.6,3.5-2.9-.2-2-1.4-5.1-3.7-5.3a3.14,3.14,0,0,0-3.1,4.2"/><path class="cls-36" d="M142.8,86.8s2.1,2.1,4.1.6c0,0,2.3,1.9,4.1.6a4.13,4.13,0,0,0,2.7,1.9,1.46,1.46,0,0,0,1.7-1.5s2.6,1.5,3.6.8-.5-3.5-.5-3.5,1.2-.7.5-2.9-4.5-1.8-4.5-1.8.2-2.1-2.4-4.3a2.52,2.52,0,0,0-4.1.5s-2.5-3.4-5.5-2.9-2.7,2.5-2.7,2.5-3.5-2.2-5.1,0,0,3.3,0,3.3-3.5,1.2-3.4,3.6,2,2.1,2,2.1-1,1.1,1.3,2.1,4.5-1.4,4.5-1.4-.9,1.3.8,2.3c1.3.8,2.9-2,2.9-2m6.9,17.1a22.64,22.64,0,0,0-2,2.2c-.2-.1-.3-.2-.5-.3-2-1.2-2.6-2.4-2.6-3.4a2.89,2.89,0,0,1,.4-1.4,3,3,0,0,1,.5-.7c.7,1.3,2.5,2.5,3.5,3.2.5.3.7.4.7.4"/><path class="cls-8" d="M149.1,103.5l-.6.6c-1.9-1.1-3.1-2.2-3.4-3.1a3,3,0,0,1,.5-.7,10.54,10.54,0,0,0,3.5,3.2"/><path class="cls-39" d="M147.3,105.8c-2-1.2-2.6-2.4-2.6-3.4a6.68,6.68,0,0,1,2,1.8,2.66,2.66,0,0,1,.6,1.6"/><path class="cls-16" d="M147.5,121.1s-12.5-8.5-16.4-9-3.3,4.5-3.3,4.5-3.1,0-1.9,3.8,18.1,5.8,24.4,4,10-5.4,9-8.7-3.9-.5-3.9-.5-1.7-3.1-4.1-2.4-3.8,8.3-3.8,8.3m26.5-1.4a24.65,24.65,0,0,1-3.8,4.1,32.17,32.17,0,0,1-4.1,3.2.9.9,0,0,1,.1.5,1.38,1.38,0,0,1-.3-.4c-.8-1.1-1.8-2.4-2.7-3.9a22.87,22.87,0,0,1-2.6-5.2,3.45,3.45,0,0,1-.3-1.3l-1-1.4.4-.4,2.7-3.2.6-.7,1.2,1.6s1.5-.5,6.4,3.6c1.1,1,2.3,2.3,3.4,3.5"/><path class="cls-5" d="M56.9,272.8a31.4,31.4,0,1,1-31.4,31.4,31.4,31.4,0,0,1,31.4-31.4"/><circle class="cls-29" cx="56.9" cy="304.2" r="31.4"/><g class="cls-30"><g class="cls-54"><path class="cls-32" d="M87.2,304.2a29.9,29.9,0,0,1-6.8,19.1,29.13,29.13,0,0,1-4.3,4.3c-.5.4-1,.8-1.6,1.2a27.77,27.77,0,0,1-4.7,2.8,29.4,29.4,0,0,1-12.9,2.9,30.06,30.06,0,0,1-15.2-4.1c-1.1-.7-2.2-1.4-3.3-2.2l-.2-.2a20.5,20.5,0,0,1-3.4-3.2,29.91,29.91,0,0,1-8.1-20.6,30.25,30.25,0,1,1,60.5,0"/></g></g><path class="cls-36" d="M76.1,327.6c-.5.4-1,.8-1.6,1.2a27.77,27.77,0,0,1-4.7,2.8,29.4,29.4,0,0,1-12.9,2.9,30.06,30.06,0,0,1-15.2-4.1c-1.1-.7-2.2-1.4-3.3-2.2l-.2-.2a.35.35,0,0,1,.1-.2,28.17,28.17,0,0,0,.7-3.1q.45-2.1.9-4.5a66.57,66.57,0,0,0,.9-12.8c-.5-16,2.4-21.9,9-25a3.55,3.55,0,0,1,.9-.4,8.31,8.31,0,0,1,4.6-.6c5.6.8,10.5,6,10.5,6a39.58,39.58,0,0,1,2.6,4.3,71.6,71.6,0,0,1,7.5,27.6c.1,2.7.3,5.5.2,8.3"/><path class="cls-16" d="M75.8,319.4a9.12,9.12,0,0,0-3.2-1.7s-6.4-.6-12-.6c-.6,0-1.2.1-1.8.1-2.8.2-5.7.5-8.5.9-.8.1-1.7.3-2.5.4a78.42,78.42,0,0,0-8.1,1.8c-1.3.4-2.5.7-3.8,1.1a9.45,9.45,0,0,0-1.3,3.5,34.65,34.65,0,0,0,3.4,3.2l.2.2a19,19,0,0,0,3.3,2.2,30.33,30.33,0,0,0,15.2,4.1,29.4,29.4,0,0,0,12.9-2.9,27.77,27.77,0,0,0,4.7-2.8c.5-.4,1.1-.8,1.6-1.2a29.13,29.13,0,0,0,4.3-4.3,23.44,23.44,0,0,0-4.4-4"/><g class="cls-11"><g class="cls-55"><path class="cls-8" d="M75.8,319.4a9.12,9.12,0,0,0-3.2-1.7s-6.4-.6-12-.6c-.6,0-1.2.1-1.8.1-2.8.2-5.7.5-8.5.9-.8.1-1.7.3-2.5.4a78.42,78.42,0,0,0-8.1,1.8c-1.3.4-2.5.7-3.8,1.1a9.45,9.45,0,0,0-1.3,3.5,34.65,34.65,0,0,0,3.4,3.2l.2.2a19,19,0,0,0,3.3,2.2,30.33,30.33,0,0,0,15.2,4.1,29.4,29.4,0,0,0,12.9-2.9,27.77,27.77,0,0,0,4.7-2.8c.5-.4,1.1-.8,1.6-1.2a29.13,29.13,0,0,0,4.3-4.3,23.44,23.44,0,0,0-4.4-4"/></g></g><path class="cls-56" d="M58.4,323.5c-7-.9-9.2-3.9-9.2-3.9,2.9-2.7,2.3-6.7,1.6-9.2a12,12,0,0,0-.9-2.3l8.5,1.6a26,26,0,0,0-.3,3.6,8.8,8.8,0,0,0,.3,2.6c.6,2.5,2,2.6,2,2.6,1.5,2.7-2,5-2,5"/><g class="cls-11"><g class="cls-57"><path d="M58.1,313.2a8.8,8.8,0,0,0,.3,2.6c-3.4-.5-5.9-3.2-7.5-5.5A12,12,0,0,0,50,308l8.5,1.6a17.13,17.13,0,0,0-.4,3.6"/></g></g><path class="cls-56" d="M56.7,286.2c7.3.3,9.6,4.3,9.8,11.9.3,9.5-2,16.1-11.2,13.8-12.3-3.2-10.8-26.1,1.4-25.7"/><path class="cls-58" d="M61.9,297.5a14.44,14.44,0,0,0,2,3.2,2.12,2.12,0,0,1-2,.8Z"/><path class="cls-36" d="M54.3,293.1c-.1,0-.2-.1-.3-.1-.2-.2-.2-.4-.1-.5a4.17,4.17,0,0,1,3.6-1.1c.2.1.4.2.3.5s-.2.4-.5.3a3.68,3.68,0,0,0-3,.9c.2-.1.1,0,0,0m11.5-.5c-.1,0-.2,0-.2-.1a3.33,3.33,0,0,0-2.6-.7c-.2.1-.4-.1-.5-.3s.1-.4.3-.5a3.85,3.85,0,0,1,3.3.8.35.35,0,0,1,.1.5c-.2.3-.3.3-.4.3m-5.1,11.7a13.08,13.08,0,0,0-.9,2.5c-.2,0-.3-.1-.5-.1-2.1-.3-3.1-1.1-3.4-2a3.18,3.18,0,0,1-.2-1.3c.1-.4.2-.7.2-.7a10.54,10.54,0,0,0,4.1,1.4c.4.1.7.2.7.2"/><path class="cls-8" d="M60,304.1l-.3.7c-2-.3-3.4-.8-3.9-1.4.1-.4.2-.7.2-.7a7.74,7.74,0,0,0,4,1.4"/><path class="cls-39" d="M59.3,306.7c-2.1-.3-3.1-1.1-3.4-2a7,7,0,0,1,2.3.8,3,3,0,0,1,1.1,1.2"/><path class="cls-36" d="M48.3,298.3s3.7-5.9,3.3-10.6c0,0,14.8-5.4,15,9.4,0,0,1.9-13.1-10.7-13.9S42.6,300.9,49,306.7c-.1.1-3-4.7-.7-8.4"/><path class="cls-56" d="M49.4,299.9a3.19,3.19,0,0,0-3.4-3.1c-2.3.2-3.6,4.8,2.1,6.2.8.1,1.3-.6,1.3-3.1"/><path class="cls-36" d="M52.6,281.3c4-1.1,14.6-1.2,17.1,9.7l-1.4.7a24.2,24.2,0,0,0-8-2.4,17.69,17.69,0,0,0-2.1-2.9,12.17,12.17,0,0,1,0,2.8s-6.9,1-10,3.8c-4.9,4.4-5.2,7.2-5.2,7.2s-3.3-15.3,9.6-18.9"/><path class="cls-36" d="M70.8,290.9c-.1,0-.2-.1-.3-.2a12.61,12.61,0,0,0-6.4-7.9c-5.5-2.7-11.9-.5-12-.5s-.3,0-.4-.2,0-.3.2-.4,6.7-2.3,12.4.5a13.63,13.63,0,0,1,6.7,8.2c0,.3-.1.5-.2.5m-15.5,5.8s1.7-1.4,2.5.5a5,5,0,0,0-2.5-.5m8.2,1.1s.9-2,2.2-.6a6.35,6.35,0,0,0-2.2.6"/><path class="cls-5" d="M359.3,319.2a38.9,38.9,0,1,1-38.9,38.9,38.9,38.9,0,0,1,38.9-38.9"/><path class="cls-29" d="M359.3,319.2a38.9,38.9,0,1,1-38.9,38.9A38.9,38.9,0,0,1,359.3,319.2Z"/><g class="cls-30"><g class="cls-59"><path class="cls-32" d="M397.1,358.1a37.34,37.34,0,0,1-4,17c-.5,1-1.1,2-1.7,3-.5.7-.9,1.5-1.5,2.2a37.46,37.46,0,0,1-7.9,8l-2.1,1.5a39.48,39.48,0,0,1-9.5,4.5,37.32,37.32,0,0,1-26.7-1.7l-1.8-.9a38.1,38.1,0,0,1-9.2-6.7,41,41,0,0,1-6.7-8.8,25.91,25.91,0,0,1-1.4-2.9,37.82,37.82,0,1,1,72.5-15.2"/></g></g><path class="cls-60" d="M340.5,356.6a22.67,22.67,0,0,1-2.3,2.8l-3.3,15.4-2.1,10a41,41,0,0,1-6.7-8.8c.3-.8.5-1.7.8-2.5,2.3-7.1,5-15.4,5.1-16.2.4-1.4-.9-8.6-.6-9.9s6.8-2.8,8.2-2.8,1.3,11.1.9,12"/><path class="cls-16" d="M345.6,373.6l-1.3,14.1-.5,4.8-1.8-.9a38.1,38.1,0,0,1-9.2-6.7,41,41,0,0,1-6.7-8.8,25.91,25.91,0,0,1-1.4-2.9l2.2.4,8,1.3,1.7.3-2,9.7s7.3-10.2,11-11.3"/><g class="cls-6"><g class="cls-61"><path d="M345.6,373.6l-1.3,14.1-.5,4.8-1.8-.9a38.1,38.1,0,0,1-9.2-6.7,41,41,0,0,1-6.7-8.8,25.91,25.91,0,0,1-1.4-2.9l2.2.4,8,1.3,1.7.3-2,9.7s7.3-10.2,11-11.3"/></g></g><path class="cls-16" d="M393.1,375.1c-.5,1-1.1,2-1.7,3-.5.7-.9,1.5-1.5,2.2a37.46,37.46,0,0,1-7.9,8l-2.1,1.5a39.48,39.48,0,0,1-9.5,4.5,37.32,37.32,0,0,1-26.7-1.7l-1.8-.9a119.2,119.2,0,0,1,3.7-18v-.1a79.66,79.66,0,0,1,12-2.4h.2a145.6,145.6,0,0,1,17.5-.4h.1a82.65,82.65,0,0,1,12.1,1.2,42.74,42.74,0,0,1,5.6,3.1"/><g class="cls-6"><g class="cls-62"><path d="M393.1,375.1c-.5,1-1.1,2-1.7,3-.5.7-.9,1.5-1.5,2.2a37.46,37.46,0,0,1-7.9,8l-2.1,1.5a39.48,39.48,0,0,1-9.5,4.5,37.32,37.32,0,0,1-26.7-1.7l-1.8-.9a119.2,119.2,0,0,1,3.7-18v-.1a79.66,79.66,0,0,1,12-2.4h.2a145.6,145.6,0,0,1,17.5-.4h.1a82.65,82.65,0,0,1,12.1,1.2,42.74,42.74,0,0,1,5.6,3.1"/></g></g><g class="cls-17"><g class="cls-63"><path class="cls-8" d="M382,388.3l-2.1,1.5a39.48,39.48,0,0,1-9.5,4.5,37.32,37.32,0,0,1-26.7-1.7l-1.8-.9c.1-.3.1-.6.2-.9a19.09,19.09,0,0,1,2.2-3,103.31,103.31,0,0,1,12.1-12.4,7.22,7.22,0,0,0,4.2,2.2c3.6.7,7.7-1,11-3a86.17,86.17,0,0,1,5.9,6.5,32.91,32.91,0,0,1,4,6,4.33,4.33,0,0,1,.5,1.2"/></g></g><path class="cls-60" d="M375.3,370.8a18.43,18.43,0,0,1-12.9,5.8c-7.3.3-4.9-5.4-4.9-5.4,2.7-.7,4.2-2,4.9-3.5.9-2,.7-4.4.1-6.8-.1-.2-.1-.3-.2-.5L373,351c-.9,5.7-1.8,16.1,2.3,19.8"/><g class="cls-11"><g class="cls-64"><path d="M371.3,359.3c-.6,3.7-5,7.3-8.8,8.4.9-2,.7-4.4.1-6.8l8.8-6.8a13,13,0,0,1-.1,5.2"/></g></g><path class="cls-36" d="M364.4,338.5c2.5,2.8.3,6.1-8.1,9.8-1.9-4.4-.5-11.6,2.2-12.8s3.7.6,5.9,3"/><path class="cls-60" d="M376.1,347.6c-2.2,7.4-3.2,11.9-7.9,14.8-7.1,4.5-15.6-1.2-15.6-9.1,0-7.1,3.7-18.1,11.7-19.3a10.6,10.6,0,0,1,12.1,8.7,9.05,9.05,0,0,1-.3,4.9"/><path class="cls-36" d="M364.4,347c-.2.6-.6,1-1,.9s-.6-.7-.5-1.3.6-1,1-.9.6.7.5,1.3m-6.9-1.6c-.2.6-.6,1-1,.9s-.6-.7-.5-1.3.6-1,1-.9.6.6.5,1.3"/><path class="cls-65" d="M359.6,346.2a26.08,26.08,0,0,1-4.2,4.6,3.47,3.47,0,0,0,2.8,1.2Z"/><path class="cls-36" d="M366.8,345.3a.19.19,0,0,0,.3,0,.37.37,0,0,0,.2-.5,3.84,3.84,0,0,0-2.6-2.2c-.2-.1-.4.1-.4.3s.1.4.3.4a2.79,2.79,0,0,1,2,1.8.22.22,0,0,0,.2.2m-12-3c.2.1.3,0,.4-.1a2.77,2.77,0,0,1,2.4-1.1c.2,0,.4-.1.4-.3s-.1-.4-.3-.4a3.79,3.79,0,0,0-3.1,1.4c-.1.2-.1.4.1.5Zm19.9-2.1c-3.8.4-4.2,4.2-.7,12.7,4.3-1.9,8.3-8.1,7.1-10.9-1.1-2.6-3.1-2.1-6.4-1.8"/><path class="cls-60" d="M378.3,354.5a7.38,7.38,0,0,1-4.4,3.5c-2.5.7-3.7-1.6-3-3.9.6-2.1,2.7-5,5.2-4.7s3.3,3,2.2,5.1"/><path class="cls-36" d="M367.4,337.1s-.8,7.8,6.3,10.1,9.8-1.8,9.8-1.8a12.33,12.33,0,0,1-1.8-.3s3.1-3.1,1.8-7.1-7.5-9.6-13.3-9.1a12.7,12.7,0,0,0-10.3-1.6c-5.7,1.7-6.5,8.2-6.5,8.2s.8-3.9,3.4-4.4c0,0-4.9,7.2-1.1,10.4-.1.1,2.3-7.6,11.7-4.4m-10.5,17.7a26.49,26.49,0,0,1,1.4,2.6c.2-.1.4-.1.5-.2,2.3-.7,3.2-1.7,3.4-2.7a2.21,2.21,0,0,0,0-1.4,2.41,2.41,0,0,0-.3-.8,10.39,10.39,0,0,1-4.3,2.2,6,6,0,0,1-.7.3"/><path class="cls-8" d="M357.7,354.6l.5.8c2.2-.6,3.6-1.3,4.1-2.2a2.41,2.41,0,0,0-.3-.8,12.55,12.55,0,0,1-4.3,2.2"/><path class="cls-39" d="M358.9,357.3c2.3-.7,3.2-1.7,3.4-2.7a7.72,7.72,0,0,0-2.4,1.2,3.29,3.29,0,0,0-1,1.5"/><path class="cls-24" d="M246.4,175.4l-19.1-.9a1.9,1.9,0,0,1-1.8-2l.9-19.1a1.9,1.9,0,0,1,2-1.8l19.1.9a1.9,1.9,0,0,1,1.8,2l-.9,19.1a2,2,0,0,1-2,1.8"/><g class="cls-66"><g class="cls-67"><path class="cls-8" d="M243.9,159.2c-1.5-2.7-4.6-1.9-6.3.1-1.5-2.1-4.6-3.3-6.3-.7-2.9,4.3,2.5,8.6,5.1,10.4.3.2.5.4.7.5a5.94,5.94,0,0,1,.8-.4c2.7-1.4,8.5-5.3,6-9.9"/></g></g><path class="cls-24" d="M239.4,173.3s-3.3,6.7-10.1,8.5c0,0,3.8-2,3.9-9.2Z"/></g></g></svg>