<?xml version="1.0" standalone="no"?>
<!DOCTYPE svg PUBLIC "-//W3C//DTD SVG 20010904//EN"
 "http://www.w3.org/TR/2001/REC-SVG-20010904/DTD/svg10.dtd">
<svg version="1.0" xmlns="http://www.w3.org/2000/svg"
 width="1000.000000pt" height="1000.000000pt" viewBox="0 0 1000.000000 1000.000000"
 preserveAspectRatio="xMidYMid meet">

<g transform="translate(0.000000,1000.000000) scale(0.100000,-0.100000)"
fill="#000000" stroke="none">
<path d="M2115 8417 c-97 -33 -172 -98 -214 -187 -22 -46 -26 -69 -26 -140 0
-71 4 -94 26 -140 28 -60 94 -132 145 -158 l32 -17 -378 -1280 -378 -1280 -75
-6 c-135 -11 -241 -83 -296 -199 -37 -79 -37 -201 0 -280 33 -70 99 -136 169
-169 75 -36 201 -37 274 -3 27 12 52 18 55 14 9 -13 711 -896 1168 -1468 l402
-503 -25 -30 c-49 -59 -69 -119 -69 -211 0 -71 4 -94 26 -140 33 -70 99 -136
169 -169 79 -37 201 -37 280 0 110 52 187 161 197 279 4 43 10 61 22 64 17 6
2908 606 2916 606 3 0 5 -7 5 -15 0 -8 9 -15 20 -15 13 0 20 7 20 20 0 32 16
23 35 -20 25 -56 101 -129 165 -159 79 -37 201 -37 280 0 70 33 136 99 169
169 35 74 37 201 4 272 l-21 47 251 199 c139 109 437 344 662 521 226 178 438
346 472 373 l61 48 30 -25 c60 -50 120 -70 212 -70 103 0 170 27 239 96 69 69
96 136 96 239 0 71 -4 94 -26 140 -74 157 -257 237 -414 181 -33 -12 -65 -23
-71 -24 -13 -2 -1374 1688 -1374 1707 0 7 9 21 19 30 68 62 89 242 40 346 -33
70 -99 136 -169 169 -79 37 -201 37 -280 0 -63 -30 -132 -95 -162 -152 -18
-36 -22 -38 -51 -33 -18 4 -968 231 -2112 505 l-2080 498 -7 66 c-17 177 -149
305 -322 314 -41 1 -88 -3 -111 -10z m2530 -948 c1155 -276 2103 -505 2106
-508 4 -3 9 -31 11 -62 l4 -56 -275 -96 c-152 -53 -836 -293 -1521 -533 -1055
-370 -1443 -504 -1457 -504 -2 0 -3 185 -3 410 0 226 -2 410 -4 410 -2 0 -11
-3 -20 -6 -13 -5 -16 -25 -16 -120 0 -63 -2 -114 -6 -114 -3 0 -48 25 -100 55
l-94 54 0 -390 0 -389 -27 -11 c-92 -35 -105 -34 -171 4 l-62 36 0 -59 c0 -32
-4 -61 -9 -65 -5 -3 -207 -74 -448 -159 -241 -85 -562 -198 -713 -251 -164
-59 -276 -93 -278 -87 -11 35 -93 116 -143 143 l-27 14 378 1280 378 1280 43
0 43 0 171 -932 c94 -513 174 -935 177 -938 3 -4 19 6 36 22 l29 28 -168 910
c-92 501 -168 915 -168 920 -1 6 24 21 55 34 47 20 57 22 68 10 41 -44 1122
-1188 1140 -1205 20 -21 22 -21 58 -5 l37 17 -600 634 c-533 563 -598 635
-585 649 7 9 21 31 30 49 9 17 20 32 24 32 4 0 952 -225 2107 -501z m2155
-708 c0 -5 12 -23 26 -40 14 -17 22 -35 19 -41 -4 -6 -58 -72 -121 -146 -63
-75 -114 -139 -114 -142 1 -13 50 -43 60 -37 5 3 60 65 121 138 67 79 118 131
128 130 9 -1 40 -10 68 -20 l53 -18 0 -80 c0 -44 -5 -156 -10 -250 -11 -210
-28 -542 -35 -695 -11 -272 -98 -2095 -99 -2096 0 -1 -13 -4 -28 -8 l-28 -6 0
1099 0 1100 -80 -46 -80 -45 0 -1093 0 -1094 -37 -55 c-21 -30 -42 -54 -48
-52 -7 2 -11 536 -13 1569 l-2 1566 -95 -54 c-51 -30 -96 -55 -99 -55 -4 0 -6
51 -6 113 0 112 0 114 -25 125 l-25 12 2 -872 3 -872 100 -26 100 -27 3 -733
c2 -584 0 -731 -10 -727 -7 2 -141 43 -298 91 -157 48 -566 175 -910 281 -344
107 -814 252 -1045 323 -440 136 -857 266 -912 283 l-33 11 0 233 0 234 37 10
c20 6 60 16 90 22 l53 12 2 416 3 415 75 28 c94 36 2531 891 2585 908 22 7 54
19 70 26 42 19 527 192 543 193 6 1 12 -3 12 -8z m1169 -984 c375 -466 681
-853 681 -858 0 -6 -11 -24 -24 -40 -20 -24 -44 -77 -62 -138 -4 -11 -57 -12
-322 -7 -174 3 -356 9 -404 12 l-88 6 0 -40 0 -40 198 -6 c108 -3 290 -9 404
-12 l206 -6 12 -46 c6 -25 18 -58 26 -73 l14 -28 -417 -328 c-229 -180 -554
-436 -722 -569 l-306 -241 -49 34 c-28 19 -69 39 -93 46 l-43 11 0 61 c0 33
20 481 45 995 76 1576 95 1989 95 2036 0 29 3 32 53 43 28 6 63 18 77 26 14 8
28 13 31 12 4 -1 313 -384 688 -850z m-4699 -867 l0 -619 -47 14 c-27 8 -49
15 -50 15 -2 0 -3 265 -3 589 l0 589 43 15 c23 9 45 16 50 16 4 1 7 -278 7
-619z m-260 -6 c0 -482 -2 -536 -16 -530 -15 6 -564 176 -1106 342 -159 49
-288 93 -288 98 0 6 96 7 250 2 l250 -6 0 38 0 39 -247 7 c-136 4 -248 8 -249
9 -1 1 -4 11 -8 22 -5 19 16 28 262 114 147 51 463 162 702 246 239 85 438
154 443 154 4 1 7 -240 7 -535z m-1171 -253 c141 -44 460 -143 709 -220 250
-78 455 -141 458 -141 2 0 4 -297 4 -660 l0 -660 50 0 c28 0 50 -2 50 -3 0 -2
11 -66 25 -142 14 -75 25 -138 23 -139 -39 -21 -82 -35 -87 -28 -15 22 -493
623 -1004 1262 -527 658 -564 706 -550 725 7 11 23 35 34 53 12 17 23 32 26
32 3 0 121 -36 262 -79z m1431 -1063 l0 -618 30 0 30 0 2 609 3 608 235 -72
c129 -40 316 -98 415 -128 268 -82 1542 -476 2083 -644 l472 -147 0 -58 c0
-32 -2 -58 -4 -58 -2 0 -122 -25 -267 -55 -770 -162 -2669 -555 -2677 -555 -5
0 -15 14 -23 31 -7 18 -23 45 -37 61 -21 24 -22 31 -11 46 8 9 70 85 139 167
69 83 131 158 139 168 12 16 10 17 -36 17 l-49 0 -114 -136 c-63 -75 -122
-145 -131 -157 l-17 -20 -51 22 c-28 12 -77 25 -109 29 l-57 7 -22 125 c-13
69 -28 127 -33 128 -7 3 -10 226 -10 642 l0 638 50 -16 50 -16 0 -618z"/>
<path d="M5570 5001 c0 -22 4 -41 8 -41 5 0 35 11 68 24 59 24 59 30 -1 39
-16 3 -40 8 -52 12 -21 7 -23 4 -23 -34z"/>
<path d="M4339 4994 c-20 -21 -24 -36 -24 -89 0 -71 16 -98 74 -122 41 -18
102 -9 127 18 23 25 75 25 98 0 23 -25 84 -35 134 -22 46 13 60 26 68 68 9 44
-20 69 -96 84 -65 13 -86 33 -56 54 11 9 28 10 51 5 20 -4 35 -4 35 1 0 5 23
9 50 9 l50 0 0 -155 0 -155 25 0 c24 0 25 3 25 60 l0 59 35 -20 c96 -57 192
51 152 169 l-15 42 29 0 29 0 0 -110 c0 -109 0 -110 24 -110 23 0 24 3 28 81
3 71 6 83 27 101 14 10 37 22 53 25 15 3 28 12 28 19 0 20 -69 18 -92 -3 -17
-15 -18 -15 -18 0 0 15 -15 17 -119 17 -113 0 -121 -1 -135 -22 -23 -32 -20
-42 6 -24 32 22 55 20 83 -9 31 -30 33 -82 4 -119 -26 -33 -62 -34 -95 -1 -21
21 -25 34 -24 68 2 23 2 57 1 75 l-1 33 -142 -3 -142 -3 -16 -27 c-13 -25 -13
-31 0 -55 16 -28 28 -34 108 -53 73 -18 66 -60 -10 -60 -27 0 -40 5 -48 20 -9
17 -21 20 -79 20 -55 0 -71 -4 -86 -20 -35 -39 -115 -16 -115 33 0 15 13 17
96 17 l97 0 -6 41 c-3 23 -15 52 -28 65 -20 21 -31 24 -94 24 -64 0 -74 -3
-96 -26z m145 -20 c33 -32 20 -44 -49 -44 -69 0 -79 8 -48 42 20 22 76 24 97
2z"/>
</g>
</svg>
